<svg xmlns="http://www.w3.org/2000/svg">
  <symbol id="controls" viewBox="0 0 24 24">
    <path d="M15,7.5V2H9v5.5l3,3 3,-3zM7.5,9H2v6h5.5l3,-3 -3,-3zM9,16.5V22h6v-5.5l-3,-3 -3,3zM16.5,9l-3,3 3,3H22V9h-5.5z"/>
  </symbol>
  <symbol id="devices" viewBox="0 0 24 24">
    <path d="M4,6h18L22,4L4,4c-1.1,0 -2,0.9 -2,2v11L0,17v3h14v-3L4,17L4,6zM23,8h-6c-0.55,0 -1,0.45 -1,1v10c0,0.55 0.45,1 1,1h6c0.55,0 1,-0.45 1,-1L24,9c0,-0.55 -0.45,-1 -1,-1zM22,17h-4v-7h4v7z"/>
  </symbol>
  <symbol id="options" viewBox="0 0 24 24">
    <path d="M19.43,12.98c0.04,-0.32 0.07,-0.64 0.07,-0.98s-0.03,-0.66 -0.07,-0.98l2.11,-1.65c0.19,-0.15 0.24,-0.42 0.12,-0.64l-2,-3.46c-0.12,-0.22 -0.39,-0.3 -0.61,-0.22l-2.49,1c-0.52,-0.4 -1.08,-0.73 -1.69,-0.98l-0.38,-2.65C14.46,2.18 14.25,2 14,2h-4c-0.25,0 -0.46,0.18 -0.49,0.42l-0.38,2.65c-0.61,0.25 -1.17,0.59 -1.69,0.98l-2.49,-1c-0.23,-0.09 -0.49,0 -0.61,0.22l-2,3.46c-0.13,0.22 -0.07,0.49 0.12,0.64l2.11,1.65c-0.04,0.32 -0.07,0.65 -0.07,0.98s0.03,0.66 0.07,0.98l-2.11,1.65c-0.19,0.15 -0.24,0.42 -0.12,0.64l2,3.46c0.12,0.22 0.39,0.3 0.61,0.22l2.49,-1c0.52,0.4 1.08,0.73 1.69,0.98l0.38,2.65c0.03,0.24 0.24,0.42 0.49,0.42h4c0.25,0 0.46,-0.18 0.49,-0.42l0.38,-2.65c0.61,-0.25 1.17,-0.59 1.69,-0.98l2.49,1c0.23,0.09 0.49,0 0.61,-0.22l2,-3.46c0.12,-0.22 0.07,-0.49 -0.12,-0.64l-2.11,-1.65zM12,15.5c-1.93,0 -3.5,-1.57 -3.5,-3.5s1.57,-3.5 3.5,-3.5 3.5,1.57 3.5,3.5 -1.57,3.5 -3.5,3.5z"/>
  </symbol>
  <symbol id="playlist" viewBox="0 0 24 24">
    <path d="M4,14h4v-4H4v4zm0,5h4v-4H4v4zM4,9h4V5H4v4zm5,5h12v-4H9v4zm0,5h12v-4H9v4zM9,5v4h12V5H9z"/>
  </symbol>
</svg>
